<?xml version="1.0" encoding="utf-8"?>
<!-- Generator: Adobe Illustrator 16.0.0, SVG Export Plug-In . SVG Version: 6.00 Build 0)  -->
<!DOCTYPE svg PUBLIC "-//W3C//DTD SVG 1.1//EN" "http://www.w3.org/Graphics/SVG/1.1/DTD/svg11.dtd">
<svg version="1.1" id="Layer_1" xmlns="http://www.w3.org/2000/svg" xmlns:xlink="http://www.w3.org/1999/xlink" x="0px" y="0px"
	 width="2000px" height="1500px" viewBox="0 0 2000 1500" enable-background="new 0 0 2000 1500" xml:space="preserve">
<g>
	<g>
		<polygon fill="#83C441" points="1109.028,759.991 1108.914,759.88 1109.024,759.991 		"/>
		<g>
			<path fill="#F05125" d="M1000.001,382.669c-127.397,0-230.673,103.274-230.673,230.669c0,127.388,103.259,230.653,230.643,230.67
				v-48.094c0.01,0,0.018,0,0.03,0c-100.834,0-182.574-81.745-182.574-182.576c0-100.833,81.74-182.572,182.574-182.572v-0.015
				c-0.012,0-0.021-0.003-0.03-0.003L1000.001,382.669z"/>
			<g>
				<path fill="#F9BC15" d="M1000.001,795.914c-0.012,0-0.021,0-0.03,0v48.094c0.01,0,0.018,0,0.03,0c1.853,0,3.7-0.026,5.547-0.071
					c0.578-0.01,1.156-0.037,1.735-0.052c1.257-0.042,2.513-0.086,3.767-0.146c0.726-0.034,1.45-0.076,2.178-0.118
					c1.082-0.06,2.162-0.126,3.238-0.202c0.82-0.057,1.642-0.118,2.461-0.185c0.936-0.077,1.87-0.16,2.801-0.249
					c0.931-0.087,1.858-0.17,2.782-0.267c0.692-0.074,1.381-0.16,2.07-0.236c43.637-5.009,83.572-22.19,116.32-48.071l-33.876-34.42
					C1078.589,782.566,1040.861,795.907,1000.001,795.914z"/>
				<path fill="#F9BC15" d="M1000.001,382.669l-0.03,48.079c0.01,0,0.018,0.003,0.03,0.003
					c100.947,0.015,182.778,81.856,182.778,182.812c0,42.354-14.409,81.257-38.587,112.162l34.081,33.956
					c0.421-0.506,0.842-1.004,1.255-1.517c31.98-39.589,51.144-89.966,51.144-144.826
					C1230.672,485.943,1127.396,382.669,1000.001,382.669z"/>
			</g>
		</g>
		<polygon fill="#83C441" points="1108.914,759.88 1070.387,720.731 1108.885,759.851 		"/>
		<g>
			<path fill="#83C441" d="M1144.192,725.725l-38.96-38.821c14.594-20.839,23.186-46.192,23.186-73.565
				c0-70.923-57.495-128.418-128.417-128.418v45.177c45.973,0,83.241,37.269,83.241,83.241c0,45.974-37.269,83.242-83.241,83.242
				v42.008v3.167c25.994,0,50.167-7.747,70.386-21.023l38.527,39.148l0.114,0.111c0,0,0,0-0.004,0l33.876,34.42
				c19.816-14.87,35.373-34.73,35.373-34.73L1144.192,725.725z"/>
			<path fill="#2CAAE2" d="M871.584,613.338c0,70.924,57.495,128.417,128.417,128.417v-3.167V696.58c-0.01,0-0.02-0.003-0.03-0.003
				c-45.958-0.015-83.213-37.274-83.213-83.239c0-45.973,37.271-83.241,83.243-83.241V484.92
				C929.079,484.92,871.584,542.415,871.584,613.338z"/>
		</g>
		<g>
			<g>
				<path fill="#F05125" d="M972.219,592.356c0,16.514,12.434,29.896,27.782,29.92v-8.008c-11.237-0.021-20.339-9.823-20.339-21.912
					c0-12.091,9.102-21.892,20.339-21.912v-8.007C984.652,562.456,972.219,575.845,972.219,592.356z"/>
				<path fill="#83C441" d="M1027.851,592.356c0-16.523-12.454-29.921-27.817-29.921c-0.011,0-0.021,0.002-0.032,0.002v8.007
					c0.004,0,0.006,0,0.009,0c0.008,0,0.016,0,0.023,0c11.253,0,20.374,9.811,20.374,21.912s-9.121,21.913-20.374,21.913
					c-0.007,0-0.016,0-0.023,0c-0.002,0-0.005-0.001-0.009-0.001v8.008c0.011,0,0.021,0,0.032,0
					C1015.396,622.276,1027.851,608.878,1027.851,592.356z"/>
			</g>
			<g>
				<path fill="#F9BC15" d="M1022.261,622.949c-6.161,5.017-13.864,8.012-22.228,8.012c-0.011,0-0.021,0-0.032,0v31.616h47.838
					c-0.136-1.05-0.292-2.093-0.482-3.121C1044.395,643.579,1034.988,630.274,1022.261,622.949z"/>
				<path fill="#2CAAE2" d="M951.897,659.456c-0.191,1.028-0.344,2.071-0.484,3.121h48.588v-31.616
					c-8.497-0.009-16.317-3.112-22.524-8.287C964.504,629.941,954.896,643.378,951.897,659.456z"/>
			</g>
		</g>
	</g>
	<g>
		<g>
			<path fill="#2CAAE2" d="M1144.914,907.287c-41.185,0-67.44,27.798-67.44,66.411c0,40.669,25.998,67.698,69.758,67.698
				c19.306,0,41.186-6.692,54.571-20.593l-20.078-19.819c-7.208,7.464-22.396,11.84-33.978,11.84
				c-22.138,0-35.78-11.327-37.841-27.027h99.103C1213.899,933.542,1187.387,907.287,1144.914,907.287z M1110.422,959.798
				c4.633-16.475,18.533-24.713,35.523-24.713c18.018,0,30.889,8.238,32.948,24.713H1110.422z"/>
			<path fill="#2CAAE2" d="M1292.21,907.287c-42.472,0-68.985,26.255-64.094,78.51h99.102c-2.06,15.7-15.702,27.027-37.84,27.027
				c-11.582,0-26.77-4.376-33.978-11.84l-20.078,19.819c13.386,13.9,35.266,20.593,54.571,20.593
				c43.76,0,69.758-27.029,69.758-67.698C1359.651,935.085,1333.396,907.287,1292.21,907.287z M1258.231,959.798
				c2.06-16.475,14.93-24.713,32.948-24.713c16.989,0,30.891,8.238,35.523,24.713H1258.231z"/>
		</g>
		<g>
			<path fill="#5D5E5E" d="M594.852,888.752h-57.144v-30.888c51.996,0,96.012,0,148.267,0v30.888H628.83v149.297h-33.978V888.752z"
				/>
			<path fill="#5D5E5E" d="M772.716,911.147h30.118v126.901h-29.603l-1.543-18.532c-7.208,14.929-27.03,22.137-41.187,22.396
				c-37.582,0.256-65.381-22.91-65.381-67.442c0-43.76,29.088-66.668,66.154-66.411c16.988,0,33.206,7.979,40.414,20.593
				L772.716,911.147z M696.524,974.47c0,24.197,16.731,38.61,37.581,38.61c49.422,0,49.422-76.964,0-76.964
				C713.256,936.116,696.524,950.272,696.524,974.47z"/>
			<path fill="#5D5E5E" d="M858.43,911.147l2.317,14.672c9.781-15.703,22.909-18.018,35.779-18.018
				c13.128,0,25.742,5.147,32.691,12.097l-14.157,27.285c-6.437-5.405-12.356-8.235-22.651-8.235
				c-16.474,0-31.662,8.751-31.662,32.177v66.924h-31.404V911.147H858.43z"/>
			<path fill="#5D5E5E" d="M1040.67,898.276l23.167,17.505l-14.157,18.018c9.781,11.068,13.385,23.682,13.385,37.582
				c0,15.703-5.92,37.839-26.77,47.364c21.105,10.553,26.255,25.74,26.255,41.956c0,35.009-26.771,56.63-63.58,56.63
				c-36.81,0-64.352-22.396-64.352-56.63h31.146c0,16.474,15.188,27.285,33.206,27.285s32.175-9.781,32.175-27.285
				c0-17.502-16.474-25.482-32.175-25.482c-39.641,0-64.352-24.196-64.352-63.838c0-39.641,28.829-64.353,64.352-64.353
				c10.039,0,20.336,1.289,29.087,7.207L1040.67,898.276z M965.764,971.381c0,22.137,14.93,35.266,33.206,35.266
				c18.019,0,32.948-13.386,32.948-35.266s-14.93-35.78-32.948-35.78C980.693,935.601,965.764,949.245,965.764,971.381z"/>
			<path fill="#5D5E5E" d="M1422.136,875.369v36.037h35.008v27.026h-35.266v54.828c0,12.099,6.693,18.018,16.475,18.018
				c4.891,0,10.554-1.543,15.188-3.86l8.752,26.771c-9.01,3.604-16.474,5.146-25.999,5.405
				c-27.543,1.028-45.561-14.672-45.561-46.334v-54.828h-23.683v-27.026h23.683v-32.692L1422.136,875.369z"/>
		</g>
	</g>
</g>
</svg>
